<svg xmlns="http://www.w3.org/2000/svg" viewBox="0 0 176.43 183.15"><defs><style>.cls-1{fill:#f07005;fill-rule:evenodd;}</style></defs><title>Ресурс 1</title><g id="Слой_2" data-name="Слой 2"><g id="Слой_1-2" data-name="Слой 1"><path class="cls-1" d="M88.19,156.1C67.41,145.79,41.9,141.82,25.82,113a76.12,76.12,0,0,0,12-41.67,76.84,76.84,0,0,0-9.75-37.93l5.41-6.09c15.34,7.23,34.25,11.51,54.68,11.51s39.35-4.28,54.68-11.51l5.42,6.09a77.16,77.16,0,0,0-9.75,37.93,76.2,76.2,0,0,0,12,41.67c-16.07,28.83-41.61,32.8-62.41,43.11ZM44.7,123.93l7.63-2.27a4,4,0,0,0,1.87-1.13,2.93,2.93,0,0,0,.71-2V60.63a2.87,2.87,0,0,0-.71-2,4.23,4.23,0,0,0-1.87-1.11L44.7,55.33v-3.6H82v3.6l-7.51,2.16a4.22,4.22,0,0,0-1.93,1.16,2.74,2.74,0,0,0-.77,2V84.76h32.86V60.6a2.76,2.76,0,0,0-.77-2,3.79,3.79,0,0,0-1.9-1.13l-7.54-2.16v-3.6h37.31v3.6l-7.63,2.18a3.6,3.6,0,0,0-1.84,1.11,2.91,2.91,0,0,0-.8,2v57.89a2.83,2.83,0,0,0,.8,2,4.22,4.22,0,0,0,1.84,1.1l7.63,2.27v3.54H94.42v-3.54l7.54-2.27a3.79,3.79,0,0,0,1.9-1.13,2.89,2.89,0,0,0,.77-2V91.3H71.77v27.22a2.81,2.81,0,0,0,.77,2,4.39,4.39,0,0,0,1.93,1.1L82,123.93v3.54H44.7Zm43.51,59.22C63.64,157.8,18,164.86,0,108c10.12-7.94,16.78-21.43,16.78-36.71,0-14.74-6.18-27.78-15.65-35.8l1-9.61L27.35.71,39.46,0C50,9.92,68.17,16.72,88.21,16.72S126.4,9.92,137,0l12.07.71,25.26,25.2,1,9.61c-9.49,8-15.67,21.06-15.67,35.8,0,15.28,6.66,28.77,16.78,36.71-18,56.83-63.64,49.77-88.22,75.12Z"/></g></g></svg>