<?xml version="1.0" standalone="no"?>
<!DOCTYPE svg PUBLIC "-//W3C//DTD SVG 20010904//EN"
 "http://www.w3.org/TR/2001/REC-SVG-20010904/DTD/svg10.dtd">
<svg version="1.0" xmlns="http://www.w3.org/2000/svg"
 width="900.000000pt" height="900.000000pt" viewBox="0 0 900.000000 900.000000"
 preserveAspectRatio="xMidYMid meet">
<metadata>
Created by potrace 1.11, written by Peter Selinger 2001-2013
</metadata>
<g transform="translate(0.000000,900.000000) scale(0.100000,-0.100000)"
fill="#000000" stroke="none">
<path d="M6715 8723 c-154 -127 -323 -237 -514 -333 -108 -54 -297 -137 -331
-145 -8 -2 -62 -20 -120 -40 -58 -20 -113 -38 -122 -40 -10 -2 -59 -15 -110
-29 -80 -21 -200 -48 -276 -62 -94 -17 -144 -24 -187 -29 -27 -3 -61 -7 -75
-10 -14 -2 -61 -7 -105 -10 -44 -4 -98 -9 -120 -11 -47 -6 -464 -6 -515 0 -19
2 -75 7 -125 11 -49 3 -97 8 -105 10 -8 2 -36 6 -61 9 -258 29 -621 124 -909
238 -288 114 -610 306 -783 467 l-47 44 -143 -7 c-78 -3 -173 -9 -212 -11 -38
-3 -101 -7 -140 -10 -38 -2 -73 -4 -76 -4 -4 -1 -275 -268 -603 -594 -509
-507 -596 -598 -597 -623 0 -16 -2 -37 -4 -46 -2 -9 -6 -54 -10 -100 -4 -46
-8 -90 -10 -98 -2 -8 -6 -52 -10 -97 l-7 -82 94 -93 c112 -111 168 -173 168
-188 0 -5 4 -10 8 -10 21 0 183 -260 246 -395 49 -105 128 -320 140 -381 2
-10 9 -37 14 -59 11 -40 13 -52 31 -155 24 -136 34 -258 34 -400 0 -105 -11
-299 -18 -309 -1 -3 -6 -35 -10 -71 -4 -35 -11 -74 -16 -87 -5 -13 -7 -23 -5
-23 3 0 -9 -51 -25 -112 -77 -293 -202 -554 -382 -793 -60 -80 -299 -325 -317
-325 -17 0 -11 -37 25 -141 170 -496 409 -929 704 -1279 63 -74 279 -292 361
-364 291 -254 693 -495 1221 -731 57 -26 127 -57 154 -70 28 -12 95 -41 150
-65 308 -130 679 -305 850 -400 222 -123 441 -282 613 -444 l63 -60 51 50 c29
27 59 56 68 64 62 61 239 194 360 271 186 119 463 264 735 384 135 60 152 67
290 126 11 4 55 24 98 44 43 19 80 35 82 35 2 0 41 17 87 39 45 21 121 55 168
76 189 85 513 256 617 327 23 15 45 28 48 28 21 0 322 222 445 327 62 53 289
279 336 333 234 273 436 600 591 955 79 181 188 485 174 485 -15 0 -210 192
-277 272 -204 245 -362 562 -438 880 -50 209 -68 364 -68 578 1 192 10 290 48
480 49 246 161 528 293 738 83 133 169 240 286 357 l110 110 -6 55 c-10 79
-19 164 -26 245 -3 39 -7 77 -9 85 -1 8 -3 26 -3 39 -1 18 -148 170 -597 618
-328 326 -601 593 -608 594 -66 5 -274 17 -411 24 -66 4 -125 8 -130 10 -6 1
-51 -31 -100 -72z m-4703 -1257 c40 -18 134 -57 208 -86 74 -29 144 -56 155
-60 83 -34 345 -115 485 -150 47 -11 101 -25 120 -31 42 -11 201 -45 250 -54
19 -3 42 -8 50 -10 8 -2 31 -7 50 -9 19 -3 62 -10 95 -15 33 -5 80 -13 105
-16 25 -3 52 -8 60 -10 8 -2 44 -7 80 -10 36 -4 79 -8 95 -10 27 -4 102 -11
195 -21 229 -22 894 -22 1080 1 19 2 67 7 105 10 39 3 84 8 100 10 17 2 56 7
89 10 32 4 68 8 80 10 11 2 39 6 61 10 129 19 187 29 345 61 402 82 807 209
1149 361 l104 47 46 -50 c25 -27 78 -85 116 -128 39 -44 75 -84 81 -91 9 -8 7
-20 -6 -46 -88 -172 -135 -274 -180 -389 -29 -74 -56 -144 -61 -155 -28 -68
-117 -403 -134 -505 -3 -19 -7 -46 -10 -60 -6 -34 -13 -76 -20 -130 -3 -25 -8
-61 -10 -80 -27 -200 -27 -651 0 -870 53 -433 162 -808 343 -1180 45 -93 134
-251 172 -306 l29 -41 -50 -84 c-268 -446 -588 -783 -1014 -1066 -176 -117
-403 -240 -655 -355 -144 -66 -205 -92 -690 -291 -140 -58 -284 -118 -320
-135 -36 -16 -98 -45 -139 -64 l-74 -35 -51 25 c-150 72 -282 129 -606 262
-263 107 -394 162 -470 197 -30 14 -74 34 -97 44 -89 38 -264 126 -383 192
-474 263 -832 577 -1121 984 -44 61 -91 131 -105 155 -14 24 -42 71 -63 104
l-38 61 45 74 c163 267 290 555 378 862 18 65 36 128 38 140 2 12 11 51 20 87
8 36 18 81 21 100 3 19 10 60 15 90 11 62 25 166 37 285 4 44 8 199 7 345 0
246 -8 354 -41 585 -5 41 -58 294 -69 330 -6 22 -6 23 -23 85 -47 175 -149
439 -237 613 -36 73 -70 137 -75 143 -9 11 18 46 169 212 41 45 78 82 83 82 4
0 40 -15 81 -34z"/>
<path d="M2450 6270 l0 -87 43 -10 c109 -28 331 -95 355 -107 15 -8 38 -26 52
-41 l25 -27 0 -1423 0 -1424 -35 -36 c-36 -37 -29 -35 -332 -126 l-108 -32 0
-84 0 -83 28 -1 c37 0 1580 0 1663 0 l66 1 1 84 0 84 -121 36 c-67 21 -129 39
-137 41 -8 2 -16 4 -17 5 -2 2 -6 3 -10 4 -116 30 -167 61 -183 112 -9 27 -12
202 -12 681 0 354 3 647 6 650 8 8 1525 7 1533 -1 10 -10 5 -1299 -5 -1327
-22 -57 -68 -81 -275 -143 l-197 -59 0 -84 c0 -79 1 -83 23 -83 12 -1 408 -2
880 -3 l857 -2 0 87 0 87 -57 16 c-66 19 -236 69 -304 91 -48 15 -78 38 -105
79 -14 21 -15 169 -15 1424 0 1500 -3 1428 47 1472 33 29 75 44 257 95 l177
49 0 86 0 86 -880 0 -880 0 0 -87 0 -87 43 -10 c320 -80 417 -124 432 -195 5
-23 10 -897 6 -1134 l-1 -41 -765 0 c-457 0 -768 4 -772 10 -8 13 -7 1127 2
1165 3 17 22 45 41 61 34 30 64 41 314 113 l115 33 1 86 1 86 -878 0 -879 0 0
-87z"/>
</g>
</svg>
