<?xml version="1.0" encoding="UTF-8"?>
<svg width="36px" height="26px" viewBox="0 0 36 26" version="1.1" xmlns="http://www.w3.org/2000/svg" xmlns:xlink="http://www.w3.org/1999/xlink">
    <!-- Generator: Sketch 56 (81588) - https://sketch.com -->
    <title>qctf logo</title>
    <desc>Created with Sketch.</desc>
    <g id="next" stroke="none" stroke-width="1" fill="none" fill-rule="evenodd">
        <g id="page" transform="translate(-586.000000, -1452.000000)" fill-rule="nonzero">
            <g id="Group-4" transform="translate(-218.000000, 913.000000)">
                <g id="qctf-logo" transform="translate(804.000000, 539.000000)">
                    <path d="M5.14285714,22.7152263 C5.82611258,22.7152263 6.61958251,21.8103237 7.25051248,20.1091496 C7.93823504,18.2548458 8.33640553,15.7166043 8.33640553,13 C8.33640553,10.2833957 7.93823504,7.74515418 7.25051248,5.8908504 C6.61958251,4.18967626 5.82611258,3.28477366 5.14285714,3.28477366 C4.4596017,3.28477366 3.66613177,4.18967626 3.0352018,5.8908504 C2.34747925,7.74515418 1.94930876,10.2833957 1.94930876,13 C1.94930876,15.7166043 2.34747925,18.2548458 3.0352018,20.1091496 C3.66613177,21.8103237 4.4596017,22.7152263 5.14285714,22.7152263 Z M5.14285714,23.4 C3.01261597,23.4 1.28571429,18.7437614 1.28571429,13 C1.28571429,7.2562386 3.01261597,2.6 5.14285714,2.6 C7.27309832,2.6 9,7.2562386 9,13 C9,18.7437614 7.27309832,23.4 5.14285714,23.4 Z" id="Oval" fill="#F66606"></path>
                    <path d="M30.8571429,25.3202614 C31.8845142,25.3202614 32.994487,24.1335231 33.8612912,21.9424347 C34.7859412,19.605125 35.3199528,16.4136915 35.3199528,13 C35.3199528,9.58630848 34.7859412,6.39487497 33.8612912,4.05756532 C32.994487,1.86647693 31.8845142,0.679738562 30.8571429,0.679738562 C29.8297715,0.679738562 28.7197987,1.86647693 27.8529945,4.05756532 C26.9283445,6.39487497 26.3943329,9.58630848 26.3943329,13 C26.3943329,16.4136915 26.9283445,19.605125 27.8529945,21.9424347 C28.7197987,24.1335231 29.8297715,25.3202614 30.8571429,25.3202614 Z M30.8571429,26 C28.0168213,26 25.7142857,20.1797017 25.7142857,13 C25.7142857,5.82029825 28.0168213,0 30.8571429,0 C33.6974644,0 36,5.82029825 36,13 C36,20.1797017 33.6974644,26 30.8571429,26 Z" id="Oval" fill="#08FCFF"></path>
                    <path d="M30.8571429,22.7152263 C31.5403983,22.7152263 32.3338682,21.8103237 32.9647982,20.1091496 C33.6525208,18.2548458 34.0506912,15.7166043 34.0506912,13 C34.0506912,10.2833957 33.6525208,7.74515418 32.9647982,5.8908504 C32.3338682,4.18967626 31.5403983,3.28477366 30.8571429,3.28477366 C30.1738874,3.28477366 29.3804175,4.18967626 28.7494875,5.8908504 C28.061765,7.74515418 27.6635945,10.2833957 27.6635945,13 C27.6635945,15.7166043 28.061765,18.2548458 28.7494875,20.1091496 C29.3804175,21.8103237 30.1738874,22.7152263 30.8571429,22.7152263 Z M30.8571429,23.4 C28.7269017,23.4 27,18.7437614 27,13 C27,7.2562386 28.7269017,2.6 30.8571429,2.6 C32.987384,2.6 34.7142857,7.2562386 34.7142857,13 C34.7142857,18.7437614 32.987384,23.4 30.8571429,23.4 Z" id="Oval" fill="#0BD0FF"></path>
                    <path d="M5.14285714,25.3202614 C6.17022851,25.3202614 7.28020133,24.1335231 8.14700553,21.9424347 C9.0716555,19.605125 9.60566706,16.4136915 9.60566706,13 C9.60566706,9.58630848 9.0716555,6.39487497 8.14700553,4.05756532 C7.28020133,1.86647693 6.17022851,0.679738562 5.14285714,0.679738562 C4.11548578,0.679738562 3.00551295,1.86647693 2.13870876,4.05756532 C1.21405878,6.39487497 0.680047226,9.58630848 0.680047226,13 C0.680047226,16.4136915 1.21405878,19.605125 2.13870876,21.9424347 C3.00551295,24.1335231 4.11548578,25.3202614 5.14285714,25.3202614 Z M5.14285714,26 C2.30253557,26 0,20.1797017 0,13 C0,5.82029825 2.30253557,0 5.14285714,0 C7.98317871,0 10.2857143,5.82029825 10.2857143,13 C10.2857143,20.1797017 7.98317871,26 5.14285714,26 Z" id="Oval" fill="#FD9E00"></path>
                    <path d="M5.14285714,22.7152263 C5.82611258,22.7152263 6.61958251,21.8103237 7.25051248,20.1091496 C7.93823504,18.2548458 8.33640553,15.7166043 8.33640553,13 C8.33640553,10.2833957 7.93823504,7.74515418 7.25051248,5.8908504 C6.61958251,4.18967626 5.82611258,3.28477366 5.14285714,3.28477366 C4.4596017,3.28477366 3.66613177,4.18967626 3.0352018,5.8908504 C2.34747925,7.74515418 1.94930876,10.2833957 1.94930876,13 C1.94930876,15.7166043 2.34747925,18.2548458 3.0352018,20.1091496 C3.66613177,21.8103237 4.4596017,22.7152263 5.14285714,22.7152263 Z M5.14285714,23.4 C3.01261597,23.4 1.28571429,18.7437614 1.28571429,13 C1.28571429,7.2562386 3.01261597,2.6 5.14285714,2.6 C7.27309832,2.6 9,7.2562386 9,13 C9,18.7437614 7.27309832,23.4 5.14285714,23.4 Z" id="Oval" fill="#F66606"></path>
                    <path d="M3.30980739,4.9187821 C3.69878551,4.81816324 4.12847738,4.76666667 4.59740622,4.76666667 C7.1400807,4.76666667 8.52913436,6.2807368 8.52913436,8.93035952 L8.52913436,17.5416334 C8.52913436,18.4642699 8.36433138,19.2449623 8.03472543,19.8600533 C8.15244184,20.1675988 8.3407881,20.2149134 8.76456718,20.2149134 L9,20.2149134 L9,22.5333333 L8.64685077,22.5333333 C7.49322994,22.5333333 6.76338819,22.1075011 6.41023895,21.3977807 C5.89228674,21.5870395 5.28016141,21.7053262 4.59740622,21.7053262 C4.0738741,21.7053262 3.59924867,21.6411386 3.17558498,21.5160675 L3.2609712,21.5160675 C2.33267403,19.8061921 1.71428571,16.7487299 1.71428571,13.261526 C1.71428571,9.71352186 2.35442548,6.61037543 3.30980739,4.9187821 Z M3.25543913,8.7647581 L3.25543913,17.7072348 C3.25543913,18.8901021 3.77339134,19.3395917 4.59740622,19.3395917 C5.4214211,19.3395917 5.93937331,18.8901021 5.93937331,17.7072348 L5.93937331,8.7647581 C5.93937331,7.58189081 5.4214211,7.13240124 4.59740622,7.13240124 C3.77339134,7.13240124 3.25543913,7.58189081 3.25543913,8.7647581 Z" id="Combined-Shape" fill="#000000"></path>
                    <path d="M15.1254355,15.317365 L17.5714286,15.317365 L17.5714286,17.5124767 C17.5714286,20.1560521 16.2543554,21.6666667 13.7142857,21.6666667 C11.174216,21.6666667 9.85714286,20.1560521 9.85714286,17.5124767 L9.85714286,8.92085661 C9.85714286,6.27728119 11.174216,4.76666667 13.7142857,4.76666667 C16.2543554,4.76666667 17.5714286,6.27728119 17.5714286,8.92085661 L17.5714286,10.5258845 L15.1254355,10.5258845 L15.1254355,8.75563315 C15.1254355,7.57546555 14.6080139,7.12700186 13.7848432,7.12700186 C12.9616725,7.12700186 12.4442509,7.57546555 12.4442509,8.75563315 L12.4442509,17.6777002 C12.4442509,18.8578678 12.9616725,19.2827281 13.7848432,19.2827281 C14.6080139,19.2827281 15.1254355,18.8578678 15.1254355,17.6777002 L15.1254355,15.317365 Z" id="Path" fill="#000000"></path>
                    <polygon id="Path" fill="#000000" points="18.4285714 7.11904762 18.4285714 4.76666667 26.5714286 4.76666667 26.5714286 7.11904762 23.8172269 7.11904762 23.8172269 21.2333333 21.1827731 21.2333333 21.1827731 7.11904762"></polygon>
                    <path d="M32.4749606,4.76666667 C32.8230482,5.38296572 33.1290413,6.18229423 33.3773516,7.11904762 L30.047619,7.11904762 L30.047619,12.0825714 L33.4285714,12.0825714 L33.4285714,14.4349524 L30.047619,14.4349524 L30.047619,21.2333333 L27.4285714,21.2333333 L27.4285714,4.76666667 L32.4749606,4.76666667 Z" id="Combined-Shape" fill="#000000"></path>
                </g>
            </g>
        </g>
    </g>
</svg>