<?xml version="1.0" encoding="UTF-8"?>
<svg width="24px" height="36px" viewBox="0 0 24 36" version="1.1" xmlns="http://www.w3.org/2000/svg" xmlns:xlink="http://www.w3.org/1999/xlink">
    <!-- Generator: Sketch 56 (81588) - https://sketch.com -->
    <title>ructf logo</title>
    <desc>Created with Sketch.</desc>
    
    <g id="next" stroke="none" stroke-width="1" fill="none" fill-rule="evenodd">
        <g id="page" transform="translate(-598.000000, -1094.000000)" fill="#000000">
            <g id="Group-4" transform="translate(-218.000000, 913.000000)">
                <path d="M825.99873,195.698598 C825.550574,195.214665 825.222621,194.594613 825.079495,193.881762 C824.670892,191.890613 825.878129,189.919115 827.766371,189.493376 C829.654614,189.067637 831.518092,190.338304 831.920505,192.336002 C832.329108,194.3337 831.121871,196.305199 829.233629,196.730938 C829.146317,196.750624 829.059059,196.766683 828.971996,196.77921 L831.013819,200.669358 L834.945679,200.294014 C835.023612,200.286547 835.100774,200.284992 835.17673,200.288982 L837.363321,189.779847 C836.709445,190.164708 835.772693,190.525427 834.674833,190.392408 C831.196864,189.966757 832.512685,189.058277 829.45479,188.708861 C826.390718,188.353093 824,189.97311 824,189.97311 L825.081074,182.463855 C825.081074,182.463855 826.285699,181.180548 829.45479,181.015369 C832.568283,180.856544 832.506508,181.981026 836.287178,181.981026 C840.074026,181.981026 840,181.981026 840,181.981026 L838.356662,189.020159 C838.356662,189.020159 838.333895,189.044422 838.290017,189.086561 L835.911306,200.519063 C836.320191,200.77121 836.610933,201.207944 836.659567,201.72541 C836.739575,202.576695 836.134296,203.336942 835.301703,203.448919 L835.114267,204.34977 L834.365642,204.187213 L834.503089,203.526618 L830.263993,203.932941 C829.633888,203.990197 829.022685,203.665747 828.726535,203.099551 L827.838086,201.407322 L826.987443,204.696353 L830.610552,208.44343 C830.793282,208.627922 830.925604,208.863307 830.994916,209.111415 L832.343342,213.838204 L832.362246,213.838204 C833.231792,213.838204 833.93751,214.550722 833.93751,215.428645 C833.93751,216.293844 833.238093,217 832.368547,217 L831.165045,217 C830.465627,217 829.848124,216.52923 829.652791,215.854883 L828.083827,210.364682 L825.712883,207.913902 L824.646379,210.915146 C824.503464,211.317813 824.205207,211.638688 823.819958,211.814854 C823.434709,211.991021 822.99975,211.997313 822.608287,211.840021 L819.221823,210.462146 L818.960848,211.040979 C818.693659,211.613521 818.134427,211.953271 817.550339,211.953271 C817.33286,211.953271 817.115381,211.909229 816.904115,211.808563 C816.127403,211.443646 815.78565,210.512479 816.13983,209.726021 L817.015961,207.788188 C817.363928,207.026896 818.233846,206.674562 819.004344,206.989146 L822.266534,208.316688 L823.614906,204.535396 L824.969491,199.187479 L822.71392,199.747437 L820.961658,203.421771 C820.588836,204.201937 819.662996,204.529104 818.892497,204.151604 C818.121999,203.774104 817.798887,202.836646 818.171709,202.056479 L820.240869,197.715229 C820.439708,197.293687 820.818743,196.985395 821.266129,196.872145 L825.99873,195.698598 Z" id="ructf-logo"></path>
            </g>
        </g>
    </g>
</svg>