<?xml version="1.0" encoding="UTF-8"?>
<svg width="24px" height="14px" viewBox="0 0 24 14" version="1.1" xmlns="http://www.w3.org/2000/svg" xmlns:xlink="http://www.w3.org/1999/xlink">
    <!-- Generator: Sketch 56 (81588) - https://sketch.com -->
    <title>vk</title>
    <desc>Created with Sketch.</desc>
    <g id="next" stroke="none" stroke-width="1" fill="none" fill-rule="evenodd">
        <g id="page" transform="translate(-640.000000, -4083.000000)" fill="#6383A8" fill-rule="nonzero">
            <g id="Group" transform="translate(48.000000, 3578.000000)">
                <g id="vk" transform="translate(592.000000, 505.000000)">
                    <path d="M11.701,13.771 L13.138,13.771 C13.138,13.771 13.571,13.724 13.792,13.487 C14.002,13.266 14.002,12.857 14.002,12.857 C14.002,12.857 13.971,10.93 14.871,10.647 C15.758,10.366 16.883,12.507 18.082,13.33 C18.998,13.959 19.687,13.824 19.687,13.824 L22.898,13.78 C22.898,13.78 24.58,13.675 23.785,12.354 C23.724,12.249 23.334,11.379 21.414,9.594 C19.402,7.733 19.672,8.033 22.09,4.807 C23.559,2.842 24.16,1.641 23.965,1.131 C23.799,0.651 22.705,0.77 22.705,0.77 L19.103,0.801 C19.103,0.801 18.833,0.77 18.638,0.891 C18.443,1.01 18.324,1.282 18.324,1.282 C18.324,1.282 17.752,2.811 16.988,4.102 C15.365,6.831 14.72,6.981 14.465,6.801 C13.861,6.41 14.016,5.221 14.016,4.369 C14.016,1.728 14.42,0.619 13.235,0.334 C12.845,0.243 12.554,0.184 11.55,0.168 C10.26,0.154 9.172,0.178 8.555,0.479 C8.15,0.682 7.835,1.131 8.016,1.154 C8.256,1.184 8.795,1.3 9.08,1.691 C9.455,2.197 9.439,3.327 9.439,3.327 C9.439,3.327 9.65,6.443 8.945,6.83 C8.45,7.092 7.79,6.55 6.35,4.074 C5.615,2.814 5.059,1.404 5.059,1.404 C5.059,1.404 4.954,1.148 4.76,0.998 C4.533,0.833 4.203,0.773 4.203,0.773 L0.768,0.803 C0.768,0.803 0.258,0.819 0.079,1.043 C-0.087,1.238 0.063,1.658 0.063,1.658 C0.063,1.658 2.749,7.945 5.795,11.111 C8.585,14.013 11.751,13.826 11.751,13.826 L11.701,13.771 Z" id="Path"></path>
                </g>
            </g>
        </g>
    </g>
</svg>